<svg width="96" height="91" viewBox="0 0 96 91" fill="none" xmlns="http://www.w3.org/2000/svg">
<g filter="url(#filter0_d_62_1898)">
<path d="M48 80C70.0914 80 88 62.0914 88 40C88 17.9086 70.0914 0 48 0C25.9086 0 8 17.9086 8 40C8 62.0914 25.9086 80 48 80Z" fill="white"/>
</g>
<path d="M48 65C61.8071 65 73 53.8071 73 40C73 26.1929 61.8071 15 48 15C34.1929 15 23 26.1929 23 40C23 53.8071 34.1929 65 48 65Z" fill="#FFEBEB"/>
<path d="M48 52C54.6274 52 60 46.6274 60 40C60 33.3726 54.6274 28 48 28C41.3726 28 36 33.3726 36 40C36 46.6274 41.3726 52 48 52Z" fill="#F1AEAE" stroke="white" stroke-width="2"/>
<defs>
<filter id="filter0_d_62_1898" x="0" y="-5" width="96" height="96" filterUnits="userSpaceOnUse" color-interpolation-filters="sRGB">
<feFlood flood-opacity="0" result="BackgroundImageFix"/>
<feColorMatrix in="SourceAlpha" type="matrix" values="0 0 0 0 0 0 0 0 0 0 0 0 0 0 0 0 0 0 127 0" result="hardAlpha"/>
<feOffset dy="3"/>
<feGaussianBlur stdDeviation="4"/>
<feColorMatrix type="matrix" values="0 0 0 0 0 0 0 0 0 0 0 0 0 0 0 0 0 0 0.160784 0"/>
<feBlend mode="normal" in2="BackgroundImageFix" result="effect1_dropShadow_62_1898"/>
<feBlend mode="normal" in="SourceGraphic" in2="effect1_dropShadow_62_1898" result="shape"/>
</filter>
</defs>
</svg>
