<svg width="24" height="32" viewBox="0 0 24 32" fill="none" xmlns="http://www.w3.org/2000/svg">
<path d="M7.5 30H16.5" stroke="black" stroke-width="3" stroke-linecap="round"/>
<path d="M15.3457 5.67287C15.3457 7.70133 13.7013 9.34573 11.6729 9.34573C9.6444 9.34573 8 7.70133 8 5.67287C8 3.6444 9.6444 2 11.6729 2C13.7013 2 15.3457 3.6444 15.3457 5.67287Z" stroke="black" stroke-width="2"/>
<g clip-path="url(#clip0_6_2737)">
<path d="M21.921 24.0638V19.6728C21.879 18.3932 21.331 17.1826 20.3974 16.3065C19.4637 15.4304 18.2207 14.9605 16.941 14.9998H6.98C5.7003 14.9605 4.45725 15.4304 3.52362 16.3065C2.58999 17.1826 2.04204 18.3932 2 19.6728V24.0638" stroke="black" stroke-width="2"/>
</g>
<defs>
<clipPath id="clip0_6_2737">
<rect width="21.921" height="10.064" fill="white" transform="translate(1 14)"/>
</clipPath>
</defs>
</svg>
